<?xml version="1.0" encoding="UTF-8"?>
<svg width="32px" height="32px" viewBox="0 0 32 32" version="1.1" xmlns="http://www.w3.org/2000/svg" xmlns:xlink="http://www.w3.org/1999/xlink">
    <title>A2F1E747-83C2-4D1E-B449-F83F9D9E3216</title>
    <g id="Icon" stroke="none" stroke-width="1" fill="none" fill-rule="evenodd">
        <g id="01-Element/Icon/Communication/User/User-circle/Filled/32x32">
            <path d="M15.9987,19.5 C19.3332,19.5 20.6931,17.76 20.6931,13.4938 C20.6931,9.4045 19.2014,7.5 15.9982,7.5 C12.7982,7.5 11.3082,9.4045 11.3082,13.4938 C11.3083,17.5354 12.8425,19.5 15.9987,19.5 Z" id="Path"></path>
            <g id="Group" fill="#FFFFFF" fill-opacity="0.9">
                <g id="Communication/User/User-circle/Filled">
                    <path d="M16,1.99999996 C8.26801348,1.99999996 1.99999996,8.26801348 1.99999996,16 C1.99999996,23.7319865 8.26801348,30 16,30 C23.7319865,30 30,23.7319865 30,16 C30,12.2869691 28.5250043,8.72601434 25.899495,6.10050503 C23.2739857,3.47499573 19.7130309,1.99999996 16,1.99999996 Z M16,7.49999997 C19.2,7.49999997 20.69,9.39999998 20.69,13.5 C20.69,17.77 19.33,19.5 16,19.5 C12.84,19.5 11.31,17.5 11.31,13.5 C11.31,9.49999997 12.8,7.49999997 16,7.49999997 Z M16,28.0000236 C12.5421957,27.9779804 9.26195601,26.4654254 6.99999997,23.85 C12.7811962,21.3832391 19.3188038,21.3832391 25.1,23.85 L25.1,23.85 C22.8151692,26.4917455 19.4927386,28.0069199 16,28.0000236 Z" id="Combined-Shape"></path>
                </g>
            </g>
        </g>
    </g>
</svg>