<?xml version="1.0" encoding="UTF-8"?>
<svg width="32px" height="32px" viewBox="0 0 32 32" version="1.1" xmlns="http://www.w3.org/2000/svg" xmlns:xlink="http://www.w3.org/1999/xlink">
    <title>5D1C33CE-7C9D-4BB3-BE5E-23DA718F5EF7</title>
    <g id="Icon" stroke="none" stroke-width="1" fill="none" fill-rule="evenodd" fill-opacity="0.9">
        <g id="Communication/User/User-circle/Outline" fill="#FFFFFF">
            <path d="M16,1.99999996 C19.7130309,1.99999996 23.2739857,3.47499573 25.899495,6.10050503 C28.5250043,8.72601434 30,12.2869691 30,16 C30,23.7319865 23.7319865,30 16,30 C8.26801348,30 1.99999996,23.7319865 1.99999996,16 C1.99999996,8.26801348 8.26801348,1.99999996 16,1.99999996 Z M23.52,25.37 C18.6887728,23.5327585 13.3512272,23.5327585 8.51999998,25.37 C12.9039936,28.880004 19.1360064,28.880004 23.52,25.37 Z M24.2879333,7.2916605 C19.650259,2.86251752 12.349741,2.86251752 7.7120667,7.2916605 C3.0743924,11.7208035 2.73875493,19.013602 6.94999997,23.85 C12.7311962,21.3832391 19.2688038,21.3832391 25.05,23.85 C29.2612451,19.013602 28.9256076,11.7208035 24.2879333,7.2916605 Z M16,7.99999998 C18.28,7.99999998 21,8.99999998 21,14 C21,14.0272222 21,14.0554938 20.9999682,14.0847666 L20.9991426,14.2720319 C20.9845679,15.9593518 20.7222222,20 16,20 C14.13,20 11,19.22 11,14 C11,8.77999998 14.13,7.99999998 16,7.99999998 Z M16.1138987,10.0009899 L15.8861012,10.0008746 C14.4430506,10.023616 13,10.5117949 13,14 C13,17.58 14.71,18 16,18 C17.9,18 19,17.35 19,14 C19,10.48 17.48,9.99999998 16,9.99999998 Z" id="Combined-Shape"></path>
        </g>
    </g>
</svg>