<?xml version="1.0" encoding="UTF-8"?>
<svg width="24px" height="24px" viewBox="0 0 24 24" version="1.1" xmlns="http://www.w3.org/2000/svg" xmlns:xlink="http://www.w3.org/1999/xlink">
    <title>FB66466C-8EB9-4532-BFA3-6B27DFAEF57F</title>
    <g id="Grundfos-Icons" stroke="none" stroke-width="1" fill="none" fill-rule="evenodd">
        <g id="01-Element/Icon/Organisation/Status/Info-circle/24x24" fill="#FFFFFF" fill-rule="nonzero">
            <g id="Organisation/Status/Info-circle/32x32" transform="translate(0.000000, 0.000000)">
                <path d="M12,1.49999997 C14.7847732,1.49999997 17.4554892,2.60624679 19.4246212,4.57537877 C21.3937532,6.54451075 22.5,9.21522685 22.5,12 C22.5,17.7989899 17.7989899,22.5 12,22.5 C6.20101011,22.5 1.49999997,17.7989899 1.49999997,12 C1.49999997,6.20101011 6.20101011,1.49999997 12,1.49999997 Z M12,2.99999997 C7.02943724,2.99999997 2.99999997,7.02943724 2.99999997,12 C2.99999997,16.9705628 7.02943724,21 12,21 C14.3869484,21 16.6761336,20.0517885 18.3639611,18.3639611 C20.0517885,16.6761336 21,14.3869484 21,12 C21,7.02943724 16.9705628,2.99999997 12,2.99999997 Z M12.75,9.74999999 L12.75,17.25 L11.25,17.25 L11.25,9.74999999 L12.75,9.74999999 Z M12,5.99999998 C12.2982856,5.99596173 12.5856418,6.11215669 12.7972851,6.32238911 C13.0089285,6.53262152 13.127043,6.81919408 13.125,7.11749998 C13.128038,7.57319021 12.8558751,7.98570225 12.4357411,8.16219645 C12.015607,8.33869065 11.5304995,8.2443005 11.2071948,7.92315117 C10.8838901,7.60200184 10.7862573,7.11753653 10.9599373,6.69623134 C11.1336173,6.27492615 11.5442996,6.00001011 12,5.99999998 Z" id="Combined-Shape"></path>
            </g>
        </g>
    </g>
</svg>