<?xml version="1.0" encoding="UTF-8"?>
<svg width="32px" height="32px" viewBox="0 0 32 32" version="1.1" xmlns="http://www.w3.org/2000/svg" xmlns:xlink="http://www.w3.org/1999/xlink">
    <title>5148D7DB-ABAC-4357-9FA6-AB99055D10B5</title>
    <g id="Icon" stroke="none" stroke-width="1" fill="none" fill-rule="evenodd" fill-opacity="0.9">
        <g id="Action/Toggle/Notification/Outline" fill="#FFFFFF">
            <path d="M28.45,20.38 C26.29,19.29 25,16.72 25,13.52 L25,12.29 C25,6.29999997 21.8,2.99999996 16,2.99999996 C10.2,2.99999996 6.99999996,6.38999997 6.99999996,12.29 L6.99999996,13.52 C6.99999996,16.67 5.67999997,19.3 3.54999996,20.38 L2.99999996,20.66 L2.99999996,25 L11,25 C11.35,29.1 13.84,30 16,30 C17.74,30 20.58,29.32 21,25 L29,25 L29,20.66 L28.45,20.38 Z M16,28 C14.67,28 13.32,27.61 13.05,25 L19,25 C18.68,27.61 17.33,28 16,28 Z M27,23 L4.99999997,23 L4.99999997,21.86 C7.51999997,20.29 8.99999997,17.23 8.99999997,13.52 L8.99999997,12.29 C8.99999997,7.44999997 11.35,4.99999997 16,4.99999997 C20.65,4.99999997 23,7.44999997 23,12.29 L23,13.52 C23,17.23 24.48,20.29 27,21.86 L27,23 Z" id="Shape"></path>
        </g>
    </g>
</svg>