<?xml version="1.0" encoding="UTF-8"?>
<svg width="32px" height="32px" viewBox="0 0 32 32" version="1.1" xmlns="http://www.w3.org/2000/svg" xmlns:xlink="http://www.w3.org/1999/xlink">
    <title>881B6ADB-E84F-4B99-86CD-9349B7836250</title>
    <g id="Icon" stroke="none" stroke-width="1" fill="none" fill-rule="evenodd" fill-opacity="0.9">
        <g id="Action/Toggle/Notification/Filled" fill="#FFFFFF">
            <path d="M20.81,26 C20.5135126,28.3937671 18.4076983,30.144964 16,30 C13.5822078,30.1760842 11.4577295,28.4093662 11.19,26 L11.19,26 Z M16,2.99999996 C21.8,2.99999996 25,6.28999997 25,12.28 L25,12.28 L25,13.51 C25,16.71 26.29,19.28 28.45,20.37 L28.45,20.37 L29,20.65 L29,24 L2.99999996,24 L2.99999996,20.65 L3.54999996,20.37 C5.67999997,19.29 6.99999996,16.66 6.99999996,13.51 L6.99999996,13.51 L6.99999996,12.28 C6.99999996,6.37999997 10.2,2.99999996 16,2.99999996 Z" id="Combined-Shape"></path>
        </g>
    </g>
</svg>