<?xml version="1.0" encoding="UTF-8"?>
<svg width="32px" height="32px" viewBox="0 0 32 32" version="1.1" xmlns="http://www.w3.org/2000/svg" xmlns:xlink="http://www.w3.org/1999/xlink">
    <title>7B858A61-FEB3-4124-BC1C-E06D9EB44D68</title>
    <g id="Icon" stroke="none" stroke-width="1" fill="none" fill-rule="evenodd" fill-opacity="0.9">
        <g id="Business/Product/Pump-ALPHA/Outline" fill="#FFFFFF">
            <path d="M25,16 C24.9764635,12.6034791 23.0427387,9.50951952 20,7.99999996 L20,3.99999996 L21,3.99999996 L21,1.99999996 L11,1.99999996 L11,3.99999996 L12,3.99999996 L12,7.99999996 C8.95077303,9.5244664 7.02461175,12.6409264 7.02461175,16.05 C7.02461175,19.4590736 8.95077303,22.5755336 12,24.1 L12,28 L11,28 L11,30 L21,30 L21,28 L20,28 L20,24.05 C23.0587911,22.5324186 24.9953479,19.4145621 25,16 Z M14,3.99999996 L18,3.99999996 L18,7.22999997 C16.6843027,6.92330999 15.3156973,6.92330999 14,7.22999997 L14,3.99999996 Z M8.99999998,16 C8.99999998,12.1340067 12.1340067,8.99999998 16,8.99999998 C19.8659933,8.99999998 23,12.1340067 23,16 C23,19.8659933 19.8659933,23 16,23 C14.1434846,23 12.3630072,22.2625021 11.0502525,20.9497475 C9.73749786,19.6369928 8.99999998,17.8565154 8.99999998,16 Z M18,28 L14,28 L14,24.77 C15.3156973,25.07669 16.6843027,25.07669 18,24.77 L18,28 Z" id="Shape"></path>
        </g>
    </g>
</svg>