<?xml version="1.0" encoding="UTF-8"?>
<svg width="32px" height="32px" viewBox="0 0 32 32" version="1.1" xmlns="http://www.w3.org/2000/svg" xmlns:xlink="http://www.w3.org/1999/xlink">
    <title>7D6751AC-E2E1-4B77-B38F-F927228D872B</title>
    <g id="Icon" stroke="none" stroke-width="1" fill="none" fill-rule="evenodd" fill-opacity="0.9">
        <g id="Business/Product/Pump-ALPHA/Filled" fill="#FFFFFF">
            <path d="M20,25.16 L20,28 L22,28 L22,30 L9.99999998,30 L9.99999998,28 L12,28 L12,25.16 C12.33,25.3 12.67,25.44 13,25.54 C13.33,25.64 13.66,25.73 14,25.8 C15.32,26.0666667 16.68,26.0666667 18,25.8 C18.34,25.73 18.67,25.64 19,25.54 C19.34,25.43 19.67,25.3 20,25.16 L20,25.16 Z M16,7.99999998 C20.418278,7.99999998 24,11.581722 24,16 C24,20.418278 20.418278,24 16,24 C11.581722,24 7.99999998,20.418278 7.99999998,16 C7.99999998,11.581722 11.581722,7.99999998 16,7.99999998 Z M22,1.99999996 L22,3.99999996 L20,3.99999996 L20,6.83999997 C19.67,6.69999997 19.33,6.55999997 19,6.45999997 C18.67,6.35999997 18.34,6.26999997 18,6.19999997 C16.68,5.9333333 15.32,5.9333333 14,6.19999997 C13.66,6.26999997 13.34,6.34999997 13,6.45999997 C12.66,6.56999997 12.33,6.69999997 12,6.83999997 L12,6.83999997 L12,3.99999996 L9.99999998,3.99999996 L9.99999998,1.99999996 L22,1.99999996 Z" id="Combined-Shape"></path>
        </g>
    </g>
</svg>