<?xml version="1.0" encoding="UTF-8"?>
<svg width="20px" height="20px" viewBox="0 0 20 20" version="1.1" xmlns="http://www.w3.org/2000/svg" xmlns:xlink="http://www.w3.org/1999/xlink">
    <title>932FBBCC-E8C9-4179-9109-A01D237E5B4D</title>
    <g id="Grundfos-Icons" stroke="none" stroke-width="1" fill="none" fill-rule="evenodd">
        <g id="01-Element/Icon/Communication/Media/Guide/20x20" fill="#FFFFFF" fill-rule="nonzero">
            <g id="Communication/Media/Guide/32x32">
                <path d="M16.25,1.24999997 L16.25,15.625 L5.93749999,15.625 C5.41973303,15.625 4.99999998,16.0447331 4.99999998,16.5625 C4.99999998,17.080267 5.41973303,17.5 5.93749999,17.5 L5.93749999,17.5 L16.25,17.5 L16.25,18.75 L5.93749999,18.75 C4.72937709,18.75 3.74999998,17.7706229 3.74999998,16.5625 C3.74047586,16.4585511 3.74047586,16.353949 3.74999998,16.25 L3.74999998,16.25 L3.74999998,3.43749998 C3.74999998,2.22937709 4.72937709,1.24999997 5.93749999,1.24999997 L5.93749999,1.24999997 L16.25,1.24999997 Z M15,2.49999998 L5.93749999,2.49999998 C5.41973303,2.49999998 4.99999998,2.91973302 4.99999998,3.43749998 L4.99999998,3.43749998 L4.99999998,14.5875 C5.29245685,14.4468186 5.61296709,14.3741696 5.93749999,14.375 L5.93749999,14.375 L15,14.375 L15,2.49999998 Z M10.625,7.49999999 L10.625,11.875 L9.375,11.875 L9.375,7.49999999 L10.625,7.49999999 Z M10.0041389,4.37499978 C10.5210846,4.37730295 10.938618,4.79761987 10.9374792,5.31456944 C10.9363358,5.83151902 10.5169508,6.2499885 10,6.24999999 C9.74870212,6.25522418 9.50623668,6.15726324 9.3290953,5.97894092 C9.15195392,5.80061859 9.05560619,5.55750761 9.0625,5.30624999 C9.06594634,4.78931064 9.48719316,4.37271547 10.0041389,4.37499978 Z" id="Combined-Shape"></path>
            </g>
        </g>
    </g>
</svg>