<?xml version="1.0" encoding="UTF-8"?>
<svg width="32px" height="32px" viewBox="0 0 32 32" version="1.1" xmlns="http://www.w3.org/2000/svg" xmlns:xlink="http://www.w3.org/1999/xlink">
    <title>1FBFC872-4C4C-406B-ABFD-E659E90A3719</title>
    <g id="Grundfos-Icons" stroke="none" stroke-width="1" fill="none" fill-rule="evenodd">
        <g id="01-Element/Icon/Communication/Technology/Phone/32x32" fill="#FFFFFF" fill-rule="nonzero">
            <path d="M22,16.82 L19.26,18.64 C16.9757649,17.0408886 14.9891114,15.0542351 13.39,12.77 L15.18,9.99999998 L11.44,3.79999996 L3.86999996,6.31999997 L3.99999996,7.16999997 C5.17669791,12.2380099 7.77914947,16.8634338 11.5,20.5 C15.1365662,24.2208505 19.7619901,26.8233021 24.83,28 L25.68,28.15 L28.2,20.58 L22,16.82 Z M24.37,25.82 C20.0531767,24.5770263 16.1211144,22.2618226 12.94,19.09 C9.75727865,15.9122389 7.43158302,11.9798867 6.17999997,7.65999997 L10.56,6.19999997 L12.82,9.99999998 L11,12.77 L11.37,13.33 C13.2972818,16.2522136 15.7977864,18.7527182 18.72,20.68 L19.28,21.05 L22,19.18 L25.77,21.44 L24.37,25.82 Z" id="Shape"></path>
        </g>
    </g>
</svg>