<?xml version="1.0" encoding="UTF-8"?>
<svg width="20px" height="20px" viewBox="0 0 20 20" version="1.1" xmlns="http://www.w3.org/2000/svg" xmlns:xlink="http://www.w3.org/1999/xlink">
    <title>7D8A8025-F727-4CEE-B2B9-230B3D2B023A</title>
    <g id="Grundfos-Icons" stroke="none" stroke-width="1" fill="none" fill-rule="evenodd">
        <g id="01-Element/Icon/Communication/Technology/Mobile/20x20" fill="#FFFFFF" fill-rule="nonzero">
            <g id="Communication/Technology/Mobile/32x32">
                <path d="M13.125,1.25 C14.1605339,1.25 15,2.08946609 15,3.125 L15,3.125 L15,16.875 C15,17.9105339 14.1605339,18.75 13.125,18.75 L13.125,18.75 L6.875,18.75 C5.83946609,18.75 5,17.9105339 5,16.875 L5,16.875 L5,3.125 C5,2.08946609 5.83946609,1.25 6.875,1.25 L6.875,1.25 Z M13.125,2.5 L6.875,2.5 C6.52982203,2.5 6.25,2.77982203 6.25,3.125 L6.25,3.125 L6.25,16.875 C6.25,17.220178 6.52982203,17.5 6.875,17.5 L6.875,17.5 L13.125,17.5 C13.470178,17.5 13.75,17.220178 13.75,16.875 L13.75,16.875 L13.75,3.125 C13.75,2.77982203 13.470178,2.5 13.125,2.5 L13.125,2.5 Z M11.25,15 L11.25,16.25 L8.75,16.25 L8.75,15 L11.25,15 Z" id="Combined-Shape"></path>
            </g>
        </g>
    </g>
</svg>