<?xml version="1.0" encoding="UTF-8"?>
<svg width="32px" height="32px" viewBox="0 0 32 32" version="1.1" xmlns="http://www.w3.org/2000/svg" xmlns:xlink="http://www.w3.org/1999/xlink">
    <title>D620D29C-1C01-46D4-9BE2-5C6ABAE6D353</title>
    <g id="Grundfos-Icons" stroke="none" stroke-width="1" fill="none" fill-rule="evenodd">
        <g id="01-Element/Icon/Organisation/Status/Info-circle/32x32" fill="#FFFFFF" fill-rule="nonzero">
            <path d="M16,1.99999996 C19.7130309,1.99999996 23.2739857,3.47499573 25.899495,6.10050503 C28.5250043,8.72601434 30,12.2869691 30,16 C30,23.7319865 23.7319865,30 16,30 C8.26801348,30 1.99999996,23.7319865 1.99999996,16 C1.99999996,8.26801348 8.26801348,1.99999996 16,1.99999996 Z M16,3.99999996 C9.37258298,3.99999996 3.99999996,9.37258298 3.99999996,16 C3.99999996,22.627417 9.37258298,28 16,28 C19.1825979,28 22.2348449,26.7357179 24.4852814,24.4852814 C26.7357179,22.2348449 28,19.1825979 28,16 C28,9.37258298 22.627417,3.99999996 16,3.99999996 Z M17,13 L17,23 L15,23 L15,13 L17,13 Z M16,7.99999998 C16.3977141,7.99461564 16.7808557,8.14954226 17.0630469,8.42985214 C17.345238,8.71016203 17.502724,9.09225878 17.5,9.48999998 C17.5040507,10.097587 17.1411668,10.647603 16.5809881,10.8829286 C16.0208094,11.1182542 15.3739994,10.9924007 14.9429264,10.5642016 C14.5118535,10.1360025 14.3816764,9.49004871 14.6132497,8.92830845 C14.8448231,8.3665682 15.3923995,8.00001348 16,7.99999998 Z" id="Combined-Shape"></path>
        </g>
    </g>
</svg>